<svg width="905" height="879" viewBox="0 0 905 879" fill="none" xmlns="http://www.w3.org/2000/svg">
<g opacity="0.1">
<path fill-rule="evenodd" clip-rule="evenodd" d="M298.686 879.283H817.112L730.838 723.698L603.714 494.448L514.762 334.034L409.009 143.322L0.904053 879.283H178.385L265.083 723.698L409.009 464.15L425.809 494.448L514.762 654.862L552.932 723.698H476.59L499.263 682.812L454.136 603.779L298.686 879.283Z" fill="#B49676"/>
<path fill-rule="evenodd" clip-rule="evenodd" d="M882.467 0.413452L620.515 143.321L532.718 301.65L620.515 464.149L755.242 386.282L692.477 593.923L764.439 723.697L850.416 879.282H1028.62L929.289 700.153L829.959 521.025L881.979 317.122L755.242 386.282L695.249 278.093L825.759 206.874L882.467 0.413452Z" fill="black"/>
</g>
</svg>
