<svg width="69" height="69" viewBox="0 0 69 69" fill="none" xmlns="http://www.w3.org/2000/svg">
<g clip-path="url(#clip0)">
<path d="M33.5447 26.7509V33.3315H68.6415V26.7509H33.5447ZM66.4479 31.138H35.7382V28.9444H66.4479V31.138Z" fill="#B49676"/>
<path d="M35.738 24.5573H37.9316V22.9033L51.0929 12.7801L64.2542 22.9033V24.5573H66.4477V21.8241L51.0929 10.0118L35.738 21.8241V24.5573Z" fill="#B49676"/>
<path d="M68.6414 56.3637C68.6414 53.2861 67.583 50.2689 65.6603 47.8658L64.6995 46.6649C64.0557 45.8588 63.0939 45.3959 62.0607 45.3959C61.2414 45.3959 60.4737 45.6975 59.8672 46.2196V44.2991H53.2865V50.8798H56.6416C55.8848 52.5995 55.4801 54.4695 55.4801 56.3637C55.4801 59.6178 57.8568 62.3202 60.9639 62.8456V66.2346H55.4801V56.3637V55.2669H46.7059V66.2346H35.7381V62.8456C38.8453 62.3213 41.222 59.6189 41.222 56.3637C41.222 53.2861 40.1636 50.2689 38.241 47.8658L37.2802 46.6649C36.6364 45.8588 35.6745 45.3959 34.6414 45.3959C33.6082 45.3959 32.6463 45.8587 32.0036 46.6638L31.0417 47.8658C29.1191 50.2689 28.0607 53.2861 28.0607 56.3637C28.0607 59.6178 30.4374 62.3202 33.5446 62.8456V66.2346H23.6736V55.2669H14.8994V66.2346H8.31878V62.8456C11.4259 62.3213 13.8026 59.6189 13.8026 56.3637C13.8026 53.6261 12.9603 50.939 11.4226 48.6862H12.7059V42.1056H6.12523V45.5988C5.52858 45.8039 4.98897 46.156 4.58426 46.6638L3.62239 47.8658C1.69974 50.2689 0.641357 53.2861 0.641357 56.3637C0.641357 59.6178 3.01807 62.3202 6.12523 62.8456V66.2346H2.83491V62.9443H0.641357V68.4282H6.12523H8.31878H33.5446H35.7381H60.9639H63.1575H68.6414V62.9443H66.4478V66.2346H63.1575V62.8456C66.2646 62.3202 68.6414 59.6178 68.6414 56.3637ZM8.31878 44.2991H10.5123V46.4927H9.68865C9.30697 46.0792 8.83974 45.7787 8.31878 45.5988V44.2991ZM6.12523 55.2669V60.595C4.23878 60.1048 2.83491 58.4026 2.83491 56.3637C2.83491 53.7818 3.72329 51.2516 5.33445 49.2368L6.29633 48.0337C6.52336 47.7507 6.86007 47.5895 7.222 47.5895C7.58394 47.5895 7.92065 47.7507 8.14768 48.0347L9.10955 49.2368C10.7207 51.2516 11.6091 53.7818 11.6091 56.3637C11.6091 58.4026 10.2052 60.1048 8.31878 60.595V55.2669H6.12523ZM21.4801 66.2346H17.093V57.4604H21.4801V66.2346ZM33.5446 55.2669V60.595C31.6581 60.1048 30.2543 58.4026 30.2543 56.3637C30.2543 53.7818 31.1426 51.2516 32.7538 49.2368L33.7157 48.0337C33.9427 47.7507 34.2794 47.5895 34.6414 47.5895C35.0033 47.5895 35.34 47.7507 35.567 48.0347L36.5289 49.2368C38.1401 51.2516 39.0285 53.7818 39.0285 56.3637C39.0285 58.4026 37.6246 60.1048 35.7381 60.595V55.2669H33.5446ZM53.2865 66.2346H48.8994V57.4604H53.2865V66.2346ZM55.4801 48.6862V46.4927H57.6736V48.6862H55.4801ZM60.9639 55.2669V60.595C59.0775 60.1048 57.6736 58.4026 57.6736 56.3637C57.6736 53.7818 58.562 51.2516 60.1732 49.2368L61.135 48.0337C61.3621 47.7507 61.6988 47.5895 62.0607 47.5895C62.4226 47.5895 62.7594 47.7507 62.9864 48.0347L63.9483 49.2368C65.5594 51.2516 66.4478 53.7818 66.4478 56.3637C66.4478 58.4026 65.0439 60.1048 63.1575 60.595V55.2669H60.9639Z" fill="#B49676"/>
<path d="M37.9316 35.525H35.738V44.2992H37.9316V35.525Z" fill="#B49676"/>
<path d="M66.4477 35.525H64.2542V44.2992H66.4477V35.525Z" fill="#B49676"/>
<path d="M59.8673 35.525H53.2866V42.1057H59.8673V35.525ZM57.6737 39.9121H55.4802V37.7186H57.6737V39.9121Z" fill="#B49676"/>
<path d="M48.8995 35.525H42.3188V42.1057H48.8995V35.525ZM46.7059 39.9121H44.5124V37.7186H46.7059V39.9121Z" fill="#B49676"/>
<path d="M21.4801 15.7831H14.8994V22.3637H21.4801V15.7831ZM19.2865 20.1702H17.093V17.9766H19.2865V20.1702Z" fill="#B49676"/>
<path d="M30.2542 15.7831H23.6736V22.3637H30.2542V15.7831ZM28.0607 20.1702H25.8671V17.9766H28.0607V20.1702Z" fill="#B49676"/>
<path d="M12.7059 15.7831H6.12524V22.3637H12.7059V15.7831ZM10.5123 20.1702H8.31879V17.9766H10.5123V20.1702Z" fill="#B49676"/>
<path d="M21.4801 24.5573H14.8994V31.1379H21.4801V24.5573ZM19.2865 28.9443H17.093V26.7508H19.2865V28.9443Z" fill="#B49676"/>
<path d="M30.2542 24.5573H23.6736V31.1379H30.2542V24.5573ZM28.0607 28.9443H25.8671V26.7508H28.0607V28.9443Z" fill="#B49676"/>
<path d="M12.7059 24.5573H6.12524V31.1379H12.7059V24.5573ZM10.5123 28.9443H8.31879V26.7508H10.5123V28.9443Z" fill="#B49676"/>
<path d="M21.4801 33.3314H14.8994V39.9121H21.4801V33.3314ZM19.2865 37.7185H17.093V35.525H19.2865V37.7185Z" fill="#B49676"/>
<path d="M30.2542 33.3314H23.6736V39.9121H30.2542V33.3314ZM28.0607 37.7185H25.8671V35.525H28.0607V37.7185Z" fill="#B49676"/>
<path d="M6.12524 39.9121H12.7059V33.3314H6.12524V39.9121ZM8.31879 35.525H10.5123V37.7185H8.31879V35.525Z" fill="#B49676"/>
<path d="M14.8994 48.6862H21.4801V42.1056H14.8994V48.6862ZM17.093 44.2991H19.2865V46.4927H17.093V44.2991Z" fill="#B49676"/>
<path d="M23.6736 48.6862H30.2542V42.1056H23.6736V48.6862ZM25.8671 44.2991H28.0607V46.4927H25.8671V44.2991Z" fill="#B49676"/>
<path d="M42.3188 50.8798H48.8995V44.2992H42.3188V50.8798ZM44.5124 46.4927H46.7059V48.6863H44.5124V46.4927Z" fill="#B49676"/>
<path d="M2.83491 13.5895H33.5446V19.0734H35.7381V11.396H0.641357V47.5895H2.83491V13.5895Z" fill="#B49676"/>
<path d="M6.12519 7.00887H30.2542V9.20242H32.4478V4.81532H30.2542V0.428223H6.12519V4.81532H3.93164V9.20242H6.12519V7.00887ZM8.31874 2.62177H28.0607V4.81532H8.31874V2.62177Z" fill="#B49676"/>
</g>
<defs>
<clipPath id="clip0">
<rect width="68" height="68" fill="white" transform="translate(0.641357 0.428223)"/>
</clipPath>
</defs>
</svg>
