<svg width="69" height="69" viewBox="0 0 69 69" fill="none" xmlns="http://www.w3.org/2000/svg">
<path d="M48.7166 27.0449V2.55322C48.7166 1.96566 48.2406 1.49072 47.6541 1.49072H16.8416C16.5749 1.49072 16.3167 1.59166 16.1212 1.77335L2.30868 14.5233C2.09087 14.7231 1.96655 15.0068 1.96655 15.3032V62.0532C1.96655 62.6408 2.44255 63.1157 3.02905 63.1157H35.3089C38.7259 65.7688 43.0024 67.3657 47.6541 67.3657C58.7859 67.3657 67.8416 58.31 67.8416 47.1782C67.8416 36.4055 59.3532 27.6027 48.7166 27.0449ZM15.7791 4.97997V15.3032H4.59518L15.7791 4.97997ZM4.09155 17.4282H16.8416C17.4281 17.4282 17.9041 16.9533 17.9041 16.3657V3.61572H46.5916V27.0449C35.9549 27.6027 27.4666 36.4055 27.4666 47.1782C27.4666 52.5226 29.5692 57.3761 32.9724 60.9907H4.09155V17.4282ZM47.6541 65.2407C37.6942 65.2407 29.5916 57.1381 29.5916 47.1782C29.5916 37.2183 37.6942 29.1157 47.6541 29.1157C57.6139 29.1157 65.7166 37.2183 65.7166 47.1782C65.7166 57.1381 57.6139 65.2407 47.6541 65.2407Z" fill="#B49676"/>
<path d="M47.6541 31.2407C38.8661 31.2407 31.7166 38.3903 31.7166 47.1782C31.7166 55.9662 38.8661 63.1157 47.6541 63.1157C56.442 63.1157 63.5916 55.9662 63.5916 47.1782C63.5916 38.3903 56.442 31.2407 47.6541 31.2407ZM61.4124 48.2407C61.1818 51.2508 59.9876 53.9899 58.1314 56.1532L56.9052 54.927L55.4029 56.4294L56.629 57.6555C54.4657 59.5117 51.7256 60.706 48.7166 60.9365V58.8657H46.5916V60.9365C43.5815 60.706 40.8424 59.5117 38.6791 57.6555L39.9052 56.4294L38.4029 54.927L37.1767 56.1532C35.3206 53.9899 34.1263 51.2497 33.8957 48.2407H35.9666V46.1157H33.8957C34.1263 43.1057 35.3206 40.3665 37.1767 38.2033L38.4029 39.4294L39.9052 37.927L38.6791 36.7009C40.8424 34.8447 43.5826 33.6505 46.5916 33.4199V35.4907H48.7166V33.4199C51.7266 33.6505 54.4657 34.8447 56.629 36.7009L55.4029 37.927L56.9052 39.4294L58.1314 38.2033C59.9876 40.3665 61.1818 43.1067 61.4124 46.1157H59.3416V48.2407H61.4124Z" fill="#B49676"/>
<path d="M48.7166 37.6157H46.5916V47.1782C46.5916 47.7658 47.0676 48.2407 47.6541 48.2407H52.9666V46.1157H48.7166V37.6157Z" fill="#B49676"/>
<path d="M17.9041 46.1157H7.27905C6.69255 46.1157 6.21655 46.5907 6.21655 47.1782V57.8032C6.21655 58.3908 6.69255 58.8657 7.27905 58.8657H17.9041C18.4906 58.8657 18.9666 58.3908 18.9666 57.8032V47.1782C18.9666 46.5907 18.4906 46.1157 17.9041 46.1157ZM8.34155 56.7407V48.2407H15.0109L12.5225 52.5959L11.3506 50.8396L9.58255 52.0179L11.7076 55.2054C11.9052 55.5008 12.2377 55.6782 12.5916 55.6782C12.6032 55.6782 12.616 55.6782 12.6277 55.6772C12.9964 55.6644 13.3311 55.4625 13.5138 55.1427L16.8416 49.3192V56.7407H8.34155Z" fill="#B49676"/>
<path d="M17.9041 31.2407H7.27905C6.69255 31.2407 6.21655 31.7157 6.21655 32.3032V42.9282C6.21655 43.5158 6.69255 43.9907 7.27905 43.9907H17.9041C18.4906 43.9907 18.9666 43.5158 18.9666 42.9282V32.3032C18.9666 31.7157 18.4906 31.2407 17.9041 31.2407ZM8.34155 41.8657V33.3657H15.0109L12.5225 37.7209L11.3506 35.9646L9.58255 37.1429L11.7076 40.3304C11.9052 40.6258 12.2377 40.8032 12.5916 40.8032C12.6032 40.8032 12.616 40.8032 12.6277 40.8022C12.9964 40.7894 13.3311 40.5875 13.5138 40.2677L16.8416 34.4442V41.8657H8.34155Z" fill="#B49676"/>
<path d="M6.21655 26.9907H8.34155V29.1157H6.21655V26.9907Z" fill="#B49676"/>
<path d="M10.4666 26.9907H30.6541V29.1157H10.4666V26.9907Z" fill="#B49676"/>
<path d="M28.5291 22.7407H30.6541V24.8657H28.5291V22.7407Z" fill="#B49676"/>
<path d="M6.21655 22.7407H26.4041V24.8657H6.21655V22.7407Z" fill="#B49676"/>
<path d="M31.7165 12.5556V16.3657C31.7165 16.9533 32.1925 17.4282 32.779 17.4282H41.279C41.8655 17.4282 42.3415 16.9533 42.3415 16.3657V12.5556L43.7153 13.9294L45.2177 12.4271L37.7802 4.98956C37.3648 4.57412 36.6933 4.57412 36.2778 4.98956L28.8403 12.4271L30.3427 13.9294L31.7165 12.5556ZM37.029 7.24312L40.2165 10.4306V15.3032H33.8415V10.4306L37.029 7.24312Z" fill="#B49676"/>
</svg>
