<svg width="69" height="69" viewBox="0 0 69 69" fill="none" xmlns="http://www.w3.org/2000/svg">
<path d="M51.9041 35.4907C49.2181 35.4907 46.6893 36.1654 44.4666 37.3437V31.5138C46.6893 32.691 49.2181 33.3657 51.9041 33.3657C60.692 33.3657 67.8416 26.2162 67.8416 17.4282C67.8416 8.64029 60.692 1.49072 51.9041 1.49072C45.6746 1.49072 40.2835 5.09154 37.6634 10.3127L26.8269 2.32691C25.3607 1.24741 23.1974 1.24635 21.7312 2.32797L1.96655 16.8917V22.7407H4.09155V43.5105C2.74749 45.8469 1.96655 48.5457 1.96655 51.4282C1.96655 60.2162 9.11612 67.3657 17.9041 67.3657C26.692 67.3657 33.8416 60.2162 33.8416 51.4282C33.8416 50.337 33.73 49.2713 33.5207 48.2407H36.2885C36.0781 49.2713 35.9666 50.337 35.9666 51.4282C35.9666 60.2162 43.1161 67.3657 51.9041 67.3657C60.692 67.3657 67.8416 60.2162 67.8416 51.4282C67.8416 42.6403 60.692 35.4907 51.9041 35.4907ZM51.9041 3.61572C59.5201 3.61572 65.7166 9.81222 65.7166 17.4282C65.7166 25.0442 59.5201 31.2407 51.9041 31.2407C44.2881 31.2407 38.0916 25.0442 38.0916 17.4282C38.0916 9.81222 44.2881 3.61572 51.9041 3.61572ZM36.0207 18.4907C36.0686 19.2111 36.1472 19.924 36.2885 20.6157H25.3416V18.4907H36.0207ZM30.1674 7.42797L27.4666 10.6686V14.2407H29.5916V12.7723L32.3041 14.1281L33.2551 12.2273L30.2057 10.7026L31.8823 8.69022L36.8197 12.3282C36.3852 13.6096 36.1153 14.9622 36.0218 16.3647H25.3416V3.92491C25.4149 3.96529 25.4988 3.9876 25.5668 4.03754L30.1674 7.42797ZM22.9913 4.0386C23.0593 3.98866 23.1422 3.96635 23.2166 3.92597V16.3657H6.26118L14.0004 10.6633L15.0226 13.0475L20.8833 14.2205L21.3009 12.137L16.5366 11.185L15.7578 9.36916L22.9913 4.0386ZM4.09155 18.4907H23.2166V20.6157H4.09155V18.4907ZM6.21655 22.7407H23.2166V36.4204C22.5259 36.175 21.8215 35.9603 21.0916 35.8116V24.8657H8.34155V38.708C7.57655 39.2849 6.86574 39.9267 6.21655 40.629V22.7407ZM18.9666 35.5449C18.6138 35.5215 18.2632 35.4907 17.9041 35.4907C15.2181 35.4907 12.6893 36.1654 10.4666 37.3437V26.9907H18.9666V35.5449ZM17.9041 65.2407C10.2881 65.2407 4.09155 59.0442 4.09155 51.4282C4.09155 43.8122 10.2881 37.6157 17.9041 37.6157C25.5201 37.6157 31.7166 43.8122 31.7166 51.4282C31.7166 59.0442 25.5201 65.2407 17.9041 65.2407ZM32.9119 46.1157C31.5689 42.3332 28.8478 39.202 25.3416 37.3437V22.7407H36.8962C37.4434 24.2803 38.218 25.7093 39.1838 26.9907H27.4666V37.6157H40.2166V28.2275C40.8657 28.9298 41.5766 29.5715 42.3416 30.1485V38.709C39.8649 40.5748 37.9534 43.1407 36.8962 46.1157H32.9119ZM38.0916 29.1157V35.4907H29.5916V29.1157H38.0916ZM51.9041 65.2407C44.2881 65.2407 38.0916 59.0442 38.0916 51.4282C38.0916 43.8122 44.2881 37.6157 51.9041 37.6157C59.5201 37.6157 65.7166 43.8122 65.7166 51.4282C65.7166 59.0442 59.5201 65.2407 51.9041 65.2407Z" fill="#B49676"/>
<path d="M24.2791 41.8657H15.7791C14.3957 41.8657 13.2269 42.7572 12.7871 43.9907H8.34155V50.133L16.8416 52.258V54.8112C15.608 55.2511 14.7166 56.4198 14.7166 57.8032V59.9282C14.7166 61.6856 16.1467 63.1157 17.9041 63.1157C19.6614 63.1157 21.0916 61.6856 21.0916 59.9282V57.8032C21.0916 56.4198 20.2001 55.2511 18.9666 54.8112V50.5973L10.4666 48.4723V46.1157H12.7871C13.2269 47.3493 14.3957 48.2407 15.7791 48.2407H24.2791C26.0364 48.2407 27.4666 46.8106 27.4666 45.0532C27.4666 43.2958 26.0364 41.8657 24.2791 41.8657ZM18.9666 59.9282C18.9666 60.5147 18.4895 60.9907 17.9041 60.9907C17.3186 60.9907 16.8416 60.5147 16.8416 59.9282V57.8032C16.8416 57.2167 17.3186 56.7407 17.9041 56.7407C18.4895 56.7407 18.9666 57.2167 18.9666 57.8032V59.9282ZM24.2791 46.1157H15.7791C15.1936 46.1157 14.7166 45.6397 14.7166 45.0532C14.7166 44.4667 15.1936 43.9907 15.7791 43.9907H24.2791C24.8645 43.9907 25.3416 44.4667 25.3416 45.0532C25.3416 45.6397 24.8645 46.1157 24.2791 46.1157Z" fill="#B49676"/>
<path d="M47.6541 20.6157C48.2044 20.6157 48.7548 20.5413 49.2977 20.3915L54.963 26.0568C55.5644 26.6592 56.3655 26.9907 57.2166 26.9907C58.0676 26.9907 58.8687 26.6582 59.4701 26.0568C60.0726 25.4554 60.4041 24.6543 60.4041 23.8032C60.4041 22.9522 60.0726 22.151 59.4701 21.5497L53.8049 15.8844C53.9536 15.3415 54.0291 14.7922 54.0291 14.2407C54.0291 10.7249 51.1699 7.86572 47.6541 7.86572H47.2142L45.0892 9.99072L47.6158 12.5173C47.4532 13.3684 46.7807 14.0399 45.9317 14.2025L43.4041 11.6758L41.2791 13.8008V14.2407C41.2791 17.7565 44.1382 20.6157 47.6541 20.6157ZM45.0892 16.3657H45.5291C47.8729 16.3657 49.7791 14.4596 49.7791 12.1157V11.6758L48.1194 10.0152C50.2444 10.2478 51.9041 12.0541 51.9041 14.2407C51.9041 14.7539 51.8021 15.2745 51.6023 15.7845L51.3473 16.4316L57.9677 23.051C58.1707 23.255 58.2791 23.5153 58.2791 23.8032C58.2791 24.0912 58.1707 24.3515 57.9677 24.5544C57.5597 24.9613 56.8734 24.9613 56.4654 24.5544L49.846 17.935L49.1989 18.189C48.6868 18.3887 48.1672 18.4907 47.6541 18.4907C45.4674 18.4907 43.6622 16.8311 43.4296 14.7061L45.0892 16.3657Z" fill="#B49676"/>
<path d="M48.7027 44.9778L46.8242 45.7268L51.4642 50.3657L49.0098 52.8212C47.8294 52.2888 46.3429 52.4822 45.4016 53.4247L43.2766 55.5497C42.6731 56.151 42.3416 56.9522 42.3416 57.8032C42.3416 58.6543 42.6731 59.4554 43.2755 60.0568C43.8769 60.6592 44.678 60.9907 45.5291 60.9907C46.3801 60.9907 47.1812 60.6582 47.7826 60.0568L49.9076 57.9318C50.5101 57.3304 50.8416 56.5293 50.8416 55.6782C50.8416 55.1958 50.7247 54.7358 50.5228 54.3129L52.9666 51.8692L57.6044 56.507L58.3556 54.6306C59.7145 51.2295 60.4041 47.65 60.4041 43.9907V42.9282H59.3416C55.6791 42.9282 52.0996 43.6178 48.7027 44.9778ZM48.4052 56.4294L46.2802 58.5544C45.8722 58.9613 45.1859 58.9613 44.7779 58.5544C44.5749 58.3515 44.4666 58.0912 44.4666 57.8032C44.4666 57.5153 44.5749 57.255 44.7779 57.052L46.9029 54.927C47.1069 54.7241 47.3661 54.6157 47.6541 54.6157C47.942 54.6157 48.2012 54.7241 48.4052 54.927C48.6082 55.13 48.7166 55.3903 48.7166 55.6782C48.7166 55.9662 48.6082 56.2265 48.4052 56.4294ZM56.8075 52.7032L50.6291 46.5248C53.0919 45.6663 55.6494 45.1807 58.2578 45.0755C58.1516 47.6829 57.666 50.2403 56.8075 52.7032Z" fill="#B49676"/>
</svg>
