<svg width="32" height="32" viewBox="0 0 32 32" fill="none" xmlns="http://www.w3.org/2000/svg">
<path fill-rule="evenodd" clip-rule="evenodd" d="M16 0C7.16344 0 0 7.16344 0 16C0 24.8366 7.16344 32 16 32C24.8366 32 32 24.8366 32 16C32 7.16344 24.8366 0 16 0ZM12.4822 7.51824C13.3924 7.47682 13.6833 7.46668 16.0008 7.46668H15.9981C18.3164 7.46668 18.6062 7.47682 19.5164 7.51824C20.4248 7.55984 21.0453 7.70366 21.5893 7.91469C22.1511 8.13247 22.6258 8.42403 23.1004 8.8987C23.5751 9.37301 23.8667 9.84911 24.0853 10.4104C24.2951 10.9529 24.4391 11.573 24.4818 12.4815C24.5227 13.3917 24.5333 13.6826 24.5333 16.0001C24.5333 18.3176 24.5227 18.6078 24.4818 19.518C24.4391 20.4261 24.2951 21.0464 24.0853 21.5891C23.8667 22.1502 23.5751 22.6263 23.1004 23.1006C22.6263 23.5753 22.1509 23.8676 21.5898 24.0855C21.0469 24.2965 20.4261 24.4404 19.5176 24.482C18.6074 24.5234 18.3174 24.5335 15.9997 24.5335C13.6824 24.5335 13.3917 24.5234 12.4815 24.482C11.5732 24.4404 10.9529 24.2965 10.41 24.0855C9.84909 23.8676 9.373 23.5753 8.89886 23.1006C8.42437 22.6263 8.13281 22.1502 7.91467 21.589C7.70383 21.0464 7.56 20.4263 7.51822 19.5178C7.47698 18.6076 7.46667 18.3176 7.46667 16.0001C7.46667 13.6826 7.47733 13.3915 7.51805 12.4813C7.55894 11.5732 7.70294 10.9529 7.91449 10.4102C8.13316 9.84911 8.42472 9.37301 8.89939 8.8987C9.37371 8.4242 9.8498 8.13265 10.4111 7.91469C10.9536 7.70366 11.5737 7.55984 12.4822 7.51824Z" fill="#B49676"/>
<path fill-rule="evenodd" clip-rule="evenodd" d="M15.2353 9.00451C15.3839 9.00428 15.5438 9.00435 15.7164 9.00443L16.0008 9.00451C18.2792 9.00451 18.5493 9.01269 19.449 9.05358C20.281 9.09163 20.7326 9.23065 21.0334 9.34745C21.4316 9.50212 21.7155 9.68701 22.014 9.98568C22.3127 10.2843 22.4976 10.5688 22.6526 10.967C22.7694 11.2675 22.9086 11.719 22.9465 12.551C22.9874 13.4506 22.9963 13.7208 22.9963 15.9982C22.9963 18.2755 22.9874 18.5458 22.9465 19.4453C22.9084 20.2773 22.7694 20.7289 22.6526 21.0293C22.4979 21.4276 22.3127 21.7111 22.014 22.0096C21.7154 22.3083 21.4318 22.4932 21.0334 22.6479C20.733 22.7652 20.281 22.9039 19.449 22.9419C18.5495 22.9828 18.2792 22.9917 16.0008 22.9917C13.7222 22.9917 13.4522 22.9828 12.5526 22.9419C11.7206 22.9035 11.269 22.7645 10.9681 22.6477C10.5698 22.493 10.2854 22.3081 9.98671 22.0094C9.68804 21.7108 9.50315 21.427 9.34812 21.0286C9.23132 20.7282 9.09212 20.2766 9.05426 19.4446C9.01337 18.5451 9.00519 18.2748 9.00519 15.9961C9.00519 13.7173 9.01337 13.4485 9.05426 12.5489C9.0923 11.7169 9.23132 11.2653 9.34812 10.9645C9.50279 10.5663 9.68804 10.2819 9.98671 9.98319C10.2854 9.68452 10.5698 9.49963 10.9681 9.34461C11.2689 9.22727 11.7206 9.0886 12.5526 9.05038C13.3398 9.01482 13.6449 9.00416 15.2353 9.00238V9.00451ZM20.5559 10.4214C19.9905 10.4214 19.5319 10.8796 19.5319 11.4451C19.5319 12.0104 19.9905 12.4691 20.5559 12.4691C21.1212 12.4691 21.5799 12.0104 21.5799 11.4451C21.5799 10.8798 21.1212 10.4211 20.5559 10.4211V10.4214ZM11.6185 16.0001C11.6185 13.5801 13.5806 11.6179 16.0006 11.6178C18.4208 11.6178 20.3824 13.58 20.3824 16.0001C20.3824 18.4202 18.4209 20.3815 16.0008 20.3815C13.5807 20.3815 11.6185 18.4202 11.6185 16.0001Z" fill="#B49676"/>
<path d="M16.0008 13.1556C17.5716 13.1556 18.8453 14.4291 18.8453 16.0001C18.8453 17.571 17.5716 18.8446 16.0008 18.8446C14.4297 18.8446 13.1563 17.571 13.1563 16.0001C13.1563 14.4291 14.4297 13.1556 16.0008 13.1556Z" fill="#B49676"/>
</svg>
