<svg width="236" height="52" viewBox="0 0 236 52" fill="none" xmlns="http://www.w3.org/2000/svg">
<path fill-rule="evenodd" clip-rule="evenodd" d="M18.3718 51.5542H48.7825L43.7217 42.4276L36.2647 28.9799L31.0468 19.57L24.8433 8.38293L0.904053 51.5542H11.315L16.4007 42.4276L24.8433 27.2026L25.8288 28.9799L31.0468 38.3897L33.2858 42.4276H28.8076L30.1376 40.0292L27.4905 35.3932L18.3718 51.5542Z" fill="#B49676"/>
<path fill-rule="evenodd" clip-rule="evenodd" d="M52.6163 0L37.2503 8.38288L32.1001 17.6704L37.2503 27.2025L45.1533 22.6349L41.4715 34.815L45.6928 42.4276L50.7362 51.5541H61.1894L55.3628 41.0465L49.5361 30.5388L52.5876 18.578L45.1533 22.6349L41.6341 16.2886L49.2898 12.1109L52.6163 0Z" fill="black"/>
<path d="M99.5825 43.5541V31.093L95.6177 39.8557H92.1526L88.1877 31.093V43.5541H81.6906V19.8981H88.7874L93.8851 31.0264L99.0161 19.8981H106.08V43.5541H99.5825ZM111.461 43.5541V19.8981H117.958V43.5541H111.461ZM139.428 41.5883C137.74 43.0099 135.796 43.7207 133.597 43.7207C132.064 43.7207 130.598 43.4541 129.199 42.921C127.8 42.3657 126.578 41.5661 125.534 40.5221C124.49 39.4781 123.657 38.2009 123.035 36.6905C122.413 35.1801 122.102 33.4586 122.102 31.5262C122.102 29.8603 122.413 28.3165 123.035 26.8949C123.657 25.4511 124.512 24.2073 125.601 23.1633C126.689 22.0971 127.966 21.2641 129.432 20.6644C130.921 20.0425 132.52 19.7315 134.23 19.7315C135.296 19.7315 136.318 19.8537 137.295 20.098C138.273 20.3201 139.172 20.6644 139.994 21.1309C140.838 21.5751 141.594 22.1193 142.26 22.7635C142.926 23.3854 143.47 24.0962 143.892 24.8958L139.061 28.5942C138.595 27.6613 137.895 26.9171 136.962 26.3618C136.029 25.7843 135.041 25.4956 133.997 25.4956C133.22 25.4956 132.509 25.6511 131.865 25.962C131.22 26.273 130.665 26.7061 130.199 27.2614C129.732 27.8167 129.366 28.4831 129.099 29.2605C128.833 30.0157 128.699 30.8487 128.699 31.7594C128.699 32.6923 128.833 33.5364 129.099 34.2916C129.366 35.0468 129.732 35.7021 130.199 36.2574C130.687 36.7905 131.265 37.2125 131.931 37.5235C132.598 37.8122 133.342 37.9566 134.164 37.9566C136.052 37.9566 137.717 37.1792 139.161 35.6243H135.063V30.9598H144.792V43.5541H139.428V41.5883Z" fill="#B49676"/>
<path d="M149.332 43.5541V19.8981H165.558V25.5622H155.829V29.4938H163.759V34.7581H155.829V43.5541H149.332ZM169.439 43.5541V19.8981H175.936V37.89H186.664V43.5541H169.439ZM196.392 19.8981H202.323L210.519 43.5541H203.922L202.489 38.9228H196.192L194.793 43.5541H188.162L196.392 19.8981ZM201.456 34.5915L199.357 27.2614L197.158 34.5915H201.456ZM230.062 25.5622H223.265V43.5541H216.768V25.5622H209.938V19.8981H230.062V25.5622Z" fill="black"/>
</svg>
