<svg width="25" height="24" viewBox="0 0 25 24" fill="none" xmlns="http://www.w3.org/2000/svg">
<g clip-path="url(#clip0)">
<path d="M12.5899 0H12.5839C5.96741 0 0.586914 5.382 0.586914 12C0.586914 14.625 1.43291 17.058 2.87141 19.0335L1.37591 23.4915L5.98841 22.017C7.88591 23.274 10.1494 24 12.5899 24C19.2064 24 24.5869 18.6165 24.5869 12C24.5869 5.3835 19.2064 0 12.5899 0Z" fill="#4CAF50"/>
<path d="M19.5727 16.9455C19.2832 17.763 18.1342 18.441 17.2177 18.639C16.5907 18.7725 15.7717 18.879 13.0147 17.736C9.48823 16.275 7.21723 12.6915 7.04023 12.459C6.87073 12.2265 5.61523 10.5615 5.61523 8.83952C5.61523 7.11753 6.48973 6.27903 6.84223 5.91903C7.13173 5.62353 7.61023 5.48853 8.06923 5.48853C8.21773 5.48853 8.35123 5.49603 8.47123 5.50203C8.82373 5.51703 9.00073 5.53803 9.23323 6.09453C9.52273 6.79203 10.2277 8.51402 10.3117 8.69102C10.3972 8.86802 10.4827 9.10802 10.3627 9.34052C10.2502 9.58052 10.1512 9.68702 9.97423 9.89102C9.79723 10.095 9.62923 10.251 9.45223 10.47C9.29023 10.6605 9.10723 10.8645 9.31123 11.217C9.51523 11.562 10.2202 12.7125 11.2582 13.6365C12.5977 14.829 13.6837 15.21 14.0722 15.372C14.3617 15.492 14.7067 15.4635 14.9182 15.2385C15.1867 14.949 15.5182 14.469 15.8557 13.9965C16.0957 13.6575 16.3987 13.6155 16.7167 13.7355C17.0407 13.848 18.7552 14.6955 19.1077 14.871C19.4602 15.048 19.6927 15.132 19.7782 15.2805C19.8622 15.429 19.8622 16.1265 19.5727 16.9455Z" fill="#FAFAFA"/>
</g>
<defs>
<clipPath id="clip0">
<rect width="24" height="24" fill="white" transform="translate(0.586914)"/>
</clipPath>
</defs>
</svg>
