<svg width="49" height="48" viewBox="0 0 49 48" fill="none" xmlns="http://www.w3.org/2000/svg">
<circle cx="24.6035" cy="24" r="24" fill="#B49676"/>
<path fill-rule="evenodd" clip-rule="evenodd" d="M18.2095 34.0079H33.551L30.9979 29.4037L27.2361 22.6197L24.6037 17.8726L21.4743 12.229L9.39746 34.0079H14.6495L17.2152 29.4037L21.4743 21.7231L21.9714 22.6197L24.6037 27.3667L25.7333 29.4037H23.4742L24.1451 28.1938L22.8097 25.855L18.2095 34.0079Z" fill="#E6D3BE"/>
<path fill-rule="evenodd" clip-rule="evenodd" d="M35.4847 8L27.7329 12.229L25.1348 16.9143L27.7329 21.723L31.7198 19.4188L29.8624 25.5634L31.992 29.4037L34.5362 34.0078H39.8097L36.8702 28.707L33.9308 23.4061L35.4702 17.3722L31.7198 19.4188L29.9444 16.2172L33.8065 14.1097L35.4847 8Z" fill="white"/>
</svg>
