<svg width="194" height="102" viewBox="0 0 194 102" fill="none" xmlns="http://www.w3.org/2000/svg">
<path fill-rule="evenodd" clip-rule="evenodd" d="M20.7136 51.5542H51.1242L46.0634 42.4276L38.6064 28.9799L33.3885 19.57L27.185 8.38293L3.24578 51.5542H13.6567L18.7424 42.4276L27.185 27.2026L28.1705 28.9799L33.3885 38.3897L35.6276 42.4276H31.1493L32.4793 40.0292L29.8322 35.3932L20.7136 51.5542Z" fill="#B49676"/>
<path fill-rule="evenodd" clip-rule="evenodd" d="M54.9579 0L39.592 8.38288L34.4418 17.6704L39.592 27.2025L47.4949 22.6349L43.8132 34.815L48.0345 42.4276L53.0779 51.5541H63.5311L57.7045 41.0465L51.8778 30.5388L54.9293 18.578L47.4949 22.6349L43.9758 16.2886L51.6315 12.1109L54.9579 0Z" fill="black"/>
<path d="M25.6381 91.5542V76.0649L20.7096 86.9571H16.4024L11.474 76.0649V91.5542H3.39804V62.1493H12.2195L18.556 75.982L24.934 62.1493H33.714V91.5542H25.6381ZM40.4032 91.5542V62.1493H48.4792V91.5542H40.4032ZM75.1665 89.1107C73.0682 90.8777 70.6523 91.7613 67.9189 91.7613C66.0138 91.7613 64.1915 91.43 62.452 90.7673C60.7126 90.0771 59.194 89.0831 57.8964 87.7854C56.5987 86.4877 55.5633 84.9001 54.7902 83.0226C54.0171 81.1452 53.6306 79.0054 53.6306 76.6033C53.6306 74.5325 54.0171 72.6136 54.7902 70.8466C55.5633 69.0519 56.6263 67.5057 57.9792 66.208C59.3321 64.8828 60.9197 63.8474 62.7419 63.1019C64.5918 62.3288 66.5798 61.9423 68.7057 61.9423C70.031 61.9423 71.3011 62.0941 72.516 62.3978C73.7308 62.6739 74.849 63.1019 75.8706 63.6817C76.9198 64.2339 77.8585 64.9104 78.6868 65.7111C79.5151 66.4841 80.1916 67.3677 80.7162 68.3616L74.711 72.9587C74.1311 71.7991 73.2614 70.8742 72.1018 70.1839C70.9422 69.466 69.7135 69.1071 68.4158 69.1071C67.4495 69.1071 66.566 69.3004 65.7653 69.6869C64.9646 70.0735 64.2743 70.6119 63.6945 71.3021C63.1147 71.9924 62.6591 72.8207 62.3278 73.787C61.9965 74.7258 61.8308 75.7612 61.8308 76.8932C61.8308 78.0528 61.9965 79.102 62.3278 80.0407C62.6591 80.9795 63.1147 81.794 63.6945 82.4843C64.3019 83.1469 65.0198 83.6715 65.8481 84.058C66.6764 84.417 67.6013 84.5964 68.6229 84.5964C70.9698 84.5964 73.0405 83.6301 74.8352 81.6974H69.7411V75.8992H81.8344V91.5542H75.1665V89.1107Z" fill="#B49676"/>
<path d="M87.4776 91.5542V62.1493H107.647V69.1899H95.5535V74.0769H105.41V80.6206H95.5535V91.5542H87.4776ZM112.471 91.5542V62.1493H120.547V84.5136H133.882V91.5542H112.471ZM145.974 62.1493H153.346L163.534 91.5542H155.334L153.553 85.7975H145.726L143.986 91.5542H135.744L145.974 62.1493ZM152.269 80.4135L149.66 71.3021L146.927 80.4135H152.269ZM187.827 69.1899H179.378V91.5542H171.302V69.1899H162.812V62.1493H187.827V69.1899Z" fill="black"/>
</svg>
