<svg width="194" height="102" viewBox="0 0 194 102" fill="none" xmlns="http://www.w3.org/2000/svg">
<path fill-rule="evenodd" clip-rule="evenodd" d="M19.8419 51.5541H50.2525L45.1917 42.4276L37.7347 28.9798L32.5168 19.57L26.3133 8.38288L2.37408 51.5541H12.785L17.8707 42.4276L26.3133 27.2025L27.2988 28.9798L32.5168 38.3896L34.7559 42.4276H30.2777L31.6076 40.0292L28.9605 35.3931L19.8419 51.5541Z" fill="#E6D3BE"/>
<path fill-rule="evenodd" clip-rule="evenodd" d="M54.0862 0L38.7203 8.38288L33.5701 17.6704L38.7203 27.2025L46.6232 22.6349L42.9415 34.815L47.1628 42.4276L52.2061 51.5541H62.6594L56.8328 41.0465L51.0061 30.5388L54.0576 18.578L46.6232 22.6349L43.1041 16.2886L50.7598 12.1109L54.0862 0Z" fill="white"/>
<path d="M24.7663 91.5541V76.0648L19.8379 86.957H15.5307L10.6023 76.0648V91.5541H2.52633V62.1493H11.3478L17.6843 75.982L24.0623 62.1493H32.8423V91.5541H24.7663ZM39.5315 91.5541V62.1493H47.6075V91.5541H39.5315ZM74.2948 89.1106C72.1965 90.8777 69.7806 91.7612 67.0472 91.7612C65.142 91.7612 63.3198 91.4299 61.5803 90.7672C59.8409 90.077 58.3223 89.083 57.0247 87.7853C55.727 86.4877 54.6916 84.9001 53.9185 83.0226C53.1454 81.1451 52.7589 79.0053 52.7589 76.6032C52.7589 74.5324 53.1454 72.6135 53.9185 70.8465C54.6916 69.0518 55.7546 67.5056 57.1075 66.208C58.4604 64.8827 60.048 63.8473 61.8702 63.1018C63.7201 62.3287 65.7081 61.9422 67.834 61.9422C69.1593 61.9422 70.4294 62.094 71.6442 62.3978C72.8591 62.6739 73.9773 63.1018 74.9989 63.6816C76.0481 64.2338 76.9868 64.9103 77.8151 65.711C78.6434 66.4841 79.3199 67.3676 79.8445 68.3616L73.8393 72.9587C73.2594 71.799 72.3897 70.8741 71.2301 70.1838C70.0705 69.466 68.8418 69.107 67.5441 69.107C66.5778 69.107 65.6943 69.3003 64.8936 69.6868C64.0929 70.0734 63.4026 70.6118 62.8228 71.302C62.243 71.9923 61.7874 72.8206 61.4561 73.787C61.1248 74.7257 60.9591 75.7611 60.9591 76.8931C60.9591 78.0527 61.1248 79.1019 61.4561 80.0407C61.7874 80.9794 62.243 81.7939 62.8228 82.4842C63.4302 83.1468 64.1481 83.6714 64.9764 84.058C65.8047 84.4169 66.7296 84.5964 67.7512 84.5964C70.0981 84.5964 72.1688 83.63 73.9635 81.6973H68.8694V75.8991H80.9627V91.5541H74.2948V89.1106Z" fill="#E6D3BE"/>
<path d="M86.6058 91.5541V62.1493H106.775V69.1899H94.6818V74.0769H104.539V80.6205H94.6818V91.5541H86.6058ZM111.599 91.5541V62.1493H119.675V84.5135H133.011V91.5541H111.599ZM145.102 62.1493H152.474L162.662 91.5541H154.462L152.681 85.7974H144.854L143.114 91.5541H134.873L145.102 62.1493ZM151.397 80.4134L148.788 71.302L146.055 80.4134H151.397ZM186.955 69.1899H178.506V91.5541H170.43V69.1899H161.94V62.1493H186.955V69.1899Z" fill="white"/>
</svg>
