<svg width="32" height="32" viewBox="0 0 32 32" fill="none" xmlns="http://www.w3.org/2000/svg">
<path d="M14.509 17.8027L18.3272 15.6053L14.509 13.4079V17.8027Z" fill="#B49676"/>
<path d="M16.0052 0.000122914C12.8405 -0.000904593 9.74653 0.936594 7.11466 2.69407C4.48279 4.45155 2.43122 6.95005 1.21943 9.87358C0.00762741 12.7971 -0.309967 16.0143 0.306809 19.1184C0.923586 22.2224 2.44703 25.0738 4.68446 27.312C6.92189 29.5501 9.77281 31.0745 12.8766 31.6923C15.9805 32.3101 19.1978 31.9935 22.1217 30.7827C25.0457 29.5718 27.5448 27.5211 29.3032 24.8898C31.0615 22.2585 32 19.1648 32 16.0001C32 11.7576 30.315 7.68866 27.3155 4.68822C24.3161 1.68779 20.2478 0.00150037 16.0052 0.000122914ZM23.3039 15.6157C23.3111 16.7982 23.2103 17.9788 23.0026 19.143C22.9189 19.4534 22.7555 19.7366 22.5286 19.9644C22.3017 20.1922 22.0192 20.3567 21.7091 20.4417C20.561 20.743 15.9948 20.743 15.9948 20.743C15.9948 20.743 11.413 20.7429 10.2805 20.4261C9.97167 20.3432 9.69005 20.1805 9.46392 19.9544C9.2378 19.7282 9.07512 19.4466 8.99221 19.1378C8.58359 16.804 8.58359 14.417 8.99221 12.0832C9.07652 11.7733 9.23941 11.4905 9.46512 11.2621C9.69082 11.0336 9.97169 10.8674 10.2805 10.7793C11.4286 10.478 16.0208 10.478 16.0208 10.478C16.0208 10.478 20.6078 10.478 21.7351 10.7897C22.0446 10.8742 22.3267 11.0379 22.5535 11.2648C22.7804 11.4916 22.9441 11.7737 23.0286 12.0832C23.2328 13.2492 23.325 14.4321 23.3039 15.6157Z" fill="#B49676"/>
</svg>
